# xmcd
#
# Track frame offsets:
#	150
#	14935
#	26455
#	38146
#	53570
#	63028
#	72841
#	91087
#	102027
#	117368
#	131411
#	144147
#	160394
#	175011
#	189127
#	199433
#	216330
#	230785
#	246472
#	260093
#	275496
#	290851
#	301579
#	318573
#	334450
#
# Disc length: 4621 seconds
#
# Revision: 0
# Processed by: cddbd v1.5.1PL0 Copyright (c) Steve Scherf et al.
# Submitted via: audiograbber 1.82.00
#
DISCID=76120b19
DTITLE=Various Artist - von MC 90
DYEAR=1900
DGENRE=
TTITLE0=That Saturday Night
TTITLE1=Blue Suede Shoes
TTITLE2=What Your Looking For
TTITLE3=Heaven Only Knows
TTITLE4=Jabadabadah
TTITLE5=He's More Than A Name On The Wall
TTITLE6=Midnight Train
TTITLE7=Hole In My Pocket
TTITLE8=Like Father And Son
TTITLE9=It's All Over
TTITLE10=Stroker's Theme
TTITLE11=The Devil Went Down To Georgia
TTITLE12=Givin' It Up
TTITLE13=Light Up The Night
TTITLE14=Love For The World
TTITLE15=Play, Ruby, Play
TTITLE16=Harper Valley PTA
TTITLE17=Dreams...
TTITLE18=Coat Of Many Colours
TTITLE19=Dogs Eyes, I'll Meet A Man Chop (??)
TTITLE20=I Wondered How Far It Is
TTITLE21=Put A Little Love In Your Heart
TTITLE22=Building Bridges
TTITLE23=Honkey-Tonk Attitude
TTITLE24=Climb That Mountain High
EXTD=
EXTT0=
EXTT1=
EXTT2=
EXTT3=
EXTT4=
EXTT5=
EXTT6=
EXTT7=
EXTT8=
EXTT9=
EXTT10=
EXTT11=
EXTT12=
EXTT13=
EXTT14=
EXTT15=
EXTT16=
EXTT17=
EXTT18=
EXTT19=
EXTT20=
EXTT21=
EXTT22=
EXTT23=
EXTT24=
PLAYORDER=
